HIERARCHY
ROOT Hips
{
	OFFSET -0.001795 -0.223333 0.028219
	CHANNELS 6 Xposition Yposition Zposition Zrotation Yrotation Xrotation 
	JOINT LeftUpLeg
	{
		OFFSET 0.069520 -0.091406 -0.006815
		CHANNELS 3 Zrotation Yrotation Xrotation
		JOINT LeftLeg
		{
			OFFSET 0.034277 -0.375199 -0.004496
			CHANNELS 3 Zrotation Yrotation Xrotation
			JOINT LeftFoot
			{
				OFFSET -0.013596 -0.397961 -0.043693
				CHANNELS 3 Zrotation Yrotation Xrotation
				JOINT LeftToe
				{
					OFFSET 0.026358 -0.055791 0.119288
					CHANNELS 3 Zrotation Yrotation Xrotation
					End Site
					{
						OFFSET 0.000000 0.000000 0.000000
					}
				}
			}
		}
	}
	JOINT RightUpLeg
	{
		OFFSET -0.067670 -0.090522 -0.004320
		CHANNELS 3 Zrotation Yrotation Xrotation
		JOINT RightLeg
		{
			OFFSET -0.038290 -0.382569 -0.008850
			CHANNELS 3 Zrotation Yrotation Xrotation
			JOINT RightFoot
			{
				OFFSET 0.015774 -0.398415 -0.042312
				CHANNELS 3 Zrotation Yrotation Xrotation
				JOINT RightToe
				{
					OFFSET -0.025372 -0.048144 0.123348
					CHANNELS 3 Zrotation Yrotation Xrotation
					End Site
					{
						OFFSET 0.000000 0.000000 0.000000
					}
				}
			}
		}
	}
	JOINT Spine
	{
		OFFSET -0.002533 0.108963 -0.026696
		CHANNELS 3 Zrotation Yrotation Xrotation
		JOINT Spine1
		{
			OFFSET 0.005487 0.135180 0.001092
			CHANNELS 3 Zrotation Yrotation Xrotation
			JOINT Spine2
			{
				OFFSET 0.001457 0.052922 0.025425
				CHANNELS 3 Zrotation Yrotation Xrotation
				JOINT Neck
				{
					OFFSET -0.002778 0.213870 -0.042857
					CHANNELS 3 Zrotation Yrotation Xrotation
					JOINT Head
					{
						OFFSET 0.005152 0.064970 0.051349
						CHANNELS 3 Zrotation Yrotation Xrotation
						End Site
						{
							OFFSET 0.000000 0.000000 0.000000
						}
					}
				}
				JOINT LeftShoulder
				{
					OFFSET 0.078845 0.121749 -0.034090
					CHANNELS 3 Zrotation Yrotation Xrotation
					JOINT LeftArm
					{
						OFFSET 0.090977 0.030469 -0.008868
						CHANNELS 3 Zrotation Yrotation Xrotation
						JOINT LeftForeArm
						{
							OFFSET 0.259612 -0.012772 -0.027456
							CHANNELS 3 Zrotation Yrotation Xrotation
							JOINT LeftHand
							{
								OFFSET 0.249234 0.008986 -0.001171
								CHANNELS 3 Zrotation Yrotation Xrotation
								End Site
								{
									OFFSET 0.000000 0.000000 0.000000
								}
							}
						}
					}
				}
				JOINT RightShoulder
				{
					OFFSET -0.081759 0.118833 -0.038615
					CHANNELS 3 Zrotation Yrotation Xrotation
					JOINT RightArm
					{
						OFFSET -0.096012 0.032551 -0.009143
						CHANNELS 3 Zrotation Yrotation Xrotation
						JOINT RightForeArm
						{
							OFFSET -0.253742 -0.013329 -0.021401
							CHANNELS 3 Zrotation Yrotation Xrotation
							JOINT RightHand
							{
								OFFSET -0.255298 0.007772 -0.005559
								CHANNELS 3 Zrotation Yrotation Xrotation
								End Site
								{
									OFFSET 0.000000 0.000000 0.000000
								}
							}
						}
					}
				}
			}
		}
	}
}
MOTION
Frames: 9
Frame Time: 0.050000
-0.211294 0.934319 0.585097 3.516815 52.469828 7.397454 8.051026 -6.614389 -34.080353 -9.022799 -0.823889 13.889189 7.420112 23.441963 22.266363 0.000000 0.000000 0.000000 3.975894 0.252340 -0.881215 -2.788734 0.208251 5.545165 7.795511 15.917937 2.426205 0.000000 0.000000 0.000000 6.885999 -1.686890 10.165755 -3.744305 1.807531 -27.191089 0.820594 18.608275 30.070693 12.650420 1.645141 -21.800166 0.000000 0.000000 0.000000 1.016392 -3.070760 -1.578124 -53.689290 -3.766966 -10.762810 -111.090628 -72.965314 72.860933 0.000000 0.000000 0.000000 10.038365 -6.250183 2.522695 66.743222 11.056784 5.796601 5.924191 29.067446 3.699468 0.000000 0.000000 0.000000 
-0.193382 0.926746 0.602641 2.200822 49.174811 6.218326 7.820804 -6.478805 -34.563656 -7.197855 -0.296511 7.240123 5.929272 22.034101 22.836333 0.000000 0.000000 0.000000 4.315557 0.134475 0.105467 -2.977600 0.234585 6.861396 9.067948 19.283932 0.763356 0.000000 0.000000 0.000000 6.068933 -1.614329 10.721894 -3.056351 1.641589 -27.855076 1.610009 20.058951 30.650636 12.841287 1.908520 -23.303117 0.000000 0.000000 0.000000 1.445921 -3.032229 -1.212135 -54.113017 -2.992345 -11.336088 -106.314793 -75.614723 71.566405 0.000000 0.000000 0.000000 10.191396 -6.689170 2.221384 67.347192 12.701741 6.757439 6.834419 31.646075 4.758898 0.000000 0.000000 0.000000 
-0.171619 0.916686 0.624836 1.493538 45.121501 5.206307 8.476889 -5.908059 -34.435753 -7.307863 -0.167332 -0.326517 5.744778 22.362523 28.461562 0.000000 0.000000 0.000000 4.697322 -0.118018 1.731198 -4.464034 0.578529 8.412708 10.242158 23.416713 -1.684987 0.000000 0.000000 0.000000 5.153674 -1.525462 11.366078 -2.601454 1.517026 -28.593818 1.794777 21.933551 30.529734 13.201177 1.247778 -22.480121 0.000000 0.000000 0.000000 1.881081 -2.405965 -0.922272 -54.511960 -2.645635 -11.709343 -102.780258 -80.179566 73.802249 0.000000 0.000000 0.000000 12.042690 -6.350029 3.196543 66.300527 14.328375 6.223689 8.275293 35.464331 6.412939 0.000000 0.000000 0.000000 
-0.145887 0.903378 0.652559 1.550183 42.541074 4.395053 8.287164 -5.667403 -34.408036 -7.344858 -0.262867 -3.901633 6.022206 22.677576 36.299286 0.000000 0.000000 0.000000 3.808005 -0.676786 4.833651 -4.145772 0.444461 10.532795 9.479111 25.293441 -7.085931 0.000000 0.000000 0.000000 4.258296 -1.346533 11.348002 -2.902428 1.571065 -28.465245 1.704427 22.681210 30.617460 13.455948 0.912659 -22.451159 0.000000 0.000000 0.000000 2.402463 -3.886308 -0.010490 -54.725492 -3.612486 -11.457303 -90.735642 -86.224960 68.543797 0.000000 0.000000 0.000000 13.655257 -5.573773 4.381027 67.119089 15.059860 5.907766 7.444010 37.956777 6.951143 0.000000 0.000000 0.000000 
-0.116454 0.888995 0.686028 0.998391 40.758518 3.382649 8.487237 -5.336641 -34.057945 -8.338113 -0.239906 -3.372058 9.793036 25.111984 43.293552 0.000000 0.000000 0.000000 3.197498 -1.374941 8.323024 -3.735696 0.275705 12.371085 8.856566 27.343482 -10.774856 0.000000 0.000000 0.000000 3.570150 -1.209478 11.225749 -3.422188 1.694200 -28.270581 1.089253 22.501357 30.094189 13.834074 0.384150 -22.314193 0.000000 0.000000 0.000000 3.234905 -3.738964 0.634383 -54.048616 -6.665482 -9.986861 24.463552 -87.721896 -41.304285 0.000000 0.000000 0.000000 14.771753 -4.862664 5.165097 67.307638 15.762371 5.629068 8.047126 39.055485 7.511373 0.000000 0.000000 0.000000 
-0.084372 0.881869 0.725067 0.160212 39.504577 2.808774 9.114991 -5.190057 -34.497144 -9.102395 -0.015528 0.871862 16.346224 29.001993 47.728264 0.000000 0.000000 0.000000 3.308366 -2.019100 11.111583 -3.744366 0.115029 15.028197 8.400405 27.061449 -10.537806 0.000000 0.000000 0.000000 2.978757 -0.863203 9.324271 -4.360464 1.976896 -26.601506 1.294779 21.624824 29.500037 12.758944 1.068484 -23.132467 0.000000 0.000000 0.000000 3.651572 -5.353363 1.458596 -52.843932 -9.026574 -8.438939 67.348686 -82.728242 -78.385924 0.000000 0.000000 0.000000 13.879218 -3.573388 5.280949 68.640014 14.855082 5.518768 9.707533 39.605729 8.287434 0.000000 0.000000 0.000000 
-0.049891 0.883998 0.767213 -0.058068 39.670051 2.912297 9.457352 -5.089848 -34.320685 -10.960085 0.078343 5.217484 24.347628 33.375737 50.960000 0.000000 0.000000 0.000000 2.790819 -2.349177 12.593895 -3.341861 -0.409261 18.569716 9.951468 27.314953 -4.295935 0.000000 0.000000 0.000000 1.322085 -0.505967 7.573268 -3.522268 1.676553 -28.117816 1.158895 20.827604 30.987868 12.435046 1.308010 -23.276456 0.000000 0.000000 0.000000 2.969374 -6.396107 1.340840 -50.166867 -12.894945 -5.977296 63.339242 -76.794790 -69.241706 0.000000 0.000000 0.000000 13.262191 -3.607871 4.900911 70.296584 13.822019 5.594578 10.628715 37.873745 7.977276 0.000000 0.000000 0.000000 
-0.013317 0.893860 0.809415 -0.432648 38.912049 2.793602 9.615618 -4.643154 -32.945160 -11.911598 0.147375 9.275182 26.524591 35.125774 49.080344 0.000000 0.000000 0.000000 1.840947 -1.810906 10.640840 -3.616690 -1.415059 25.735004 15.358974 29.213988 9.967962 0.000000 0.000000 0.000000 0.435483 -0.281471 5.659364 -3.256772 1.778584 -26.934103 0.234824 20.876314 29.581506 12.996058 0.660198 -22.799532 0.000000 0.000000 0.000000 4.115097 -7.289000 2.265723 -49.273742 -17.404958 -4.207642 63.828834 -71.761394 -65.728505 0.000000 0.000000 0.000000 13.408053 -2.551655 5.527876 70.888958 12.906726 5.091704 10.244956 34.977935 6.666047 0.000000 0.000000 0.000000 
0.022767 0.906538 0.848595 0.312162 39.317763 2.849080 7.280373 -4.440039 -30.512381 -10.993462 0.007373 12.461609 26.454916 35.305169 46.894305 0.000000 0.000000 0.000000 0.032242 -1.256655 8.194378 -3.536424 -3.430730 34.247143 19.506585 26.717771 23.501342 0.000000 0.000000 0.000000 -0.511516 -0.212029 5.353615 -3.820120 1.870428 -26.883551 -0.404044 19.616801 28.360773 13.625806 -0.536782 -21.109531 0.000000 0.000000 0.000000 4.373120 -9.610057 3.088826 -47.030053 -21.072749 -2.497598 63.747731 -67.998833 -62.363970 0.000000 0.000000 0.000000 12.306559 -2.810471 4.609468 71.964082 10.682598 4.489535 11.920505 33.112574 6.561340 0.000000 0.000000 0.000000 
